<?xml version="1.0" encoding="UTF-8" standalone="no"?>
<svg
   xmlns:dc="http://purl.org/dc/elements/1.1/"
   xmlns:cc="http://creativecommons.org/ns#"
   xmlns:rdf="http://www.w3.org/1999/02/22-rdf-syntax-ns#"
   xmlns:svg="http://www.w3.org/2000/svg"
   xmlns="http://www.w3.org/2000/svg"
   xmlns:sodipodi="http://sodipodi.sourceforge.net/DTD/sodipodi-0.dtd"
   xmlns:inkscape="http://www.inkscape.org/namespaces/inkscape"
   sodipodi:docname="kys_kys_kysssari.svg"
   inkscape:version="1.0.2-2 (e86c870879, 2021-01-15)"
   id="svg8"
   version="1.1"
   viewBox="0 0 21.472946 30.940319"
   height="30.940319mm"
   width="21.472946mm">
  <defs
     id="defs2" />
  <sodipodi:namedview
     inkscape:window-maximized="1"
     inkscape:window-y="-8"
     inkscape:window-x="-8"
     inkscape:window-height="1017"
     inkscape:window-width="1920"
     showgrid="false"
     inkscape:document-rotation="0"
     inkscape:current-layer="layer1"
     inkscape:document-units="mm"
     inkscape:cy="79.770553"
     inkscape:cx="98.301596"
     inkscape:zoom="1.4"
     inkscape:pageshadow="2"
     inkscape:pageopacity="0.0"
     borderopacity="1.0"
     bordercolor="#666666"
     pagecolor="#ffffff"
     id="base"
     fit-margin-top="0"
     fit-margin-left="0"
     fit-margin-right="0"
     fit-margin-bottom="0" />
  <metadata
     id="metadata5">
    <rdf:RDF>
      <cc:Work
         rdf:about="">
        <dc:format>image/svg+xml</dc:format>
        <dc:type
           rdf:resource="http://purl.org/dc/dcmitype/StillImage" />
        <dc:title></dc:title>
      </cc:Work>
    </rdf:RDF>
  </metadata>
  <g
     id="layer1"
     inkscape:groupmode="layer"
     inkscape:label="Layer 1"
     transform="translate(-24.813546,-27.705321)">
    <path
       id="path26"
       d="m 31.414506,58.185366 c -2.00717,-0.69407 -3.69925,-1.78363 -4.70757,-3.03129 -1.18652,-1.46817 -1.38742,-1.88956 -1.75667,-3.68473 -0.32,-1.55569 -0.0532,-3.43739 0.53937,-3.80359 0.43926,-0.27148 0.53442,-0.001 0.53104,1.50751 -0.009,4.01947 2.46327,7.13318 6.78635,8.54708 0.76398,0.24987 1.38906,0.5638 1.38906,0.69762 0,0.38126 -1.32735,0.27026 -2.78158,-0.2326 z m 6.75033,-0.008 c 0,-0.15318 0.73953,-0.67245 1.6434,-1.15393 0.90388,-0.48147 2.32132,-1.50284 3.14987,-2.2697 1.23644,-1.14437 1.56405,-1.63436 1.82776,-2.73362 0.2984,-1.24385 0.27452,-1.90482 -0.18302,-5.06636 -0.079,-0.5457 -0.0418,-0.98845 0.0826,-0.98387 0.39989,0.0147 1.09783,1.18814 1.42141,2.38985 0.84186,3.12643 -1.36708,7.38831 -4.70643,9.08049 -1.49386,0.75699 -3.23562,1.1538 -3.23562,0.73714 z m -1.22865,-1.83552 c 0.0971,-0.15711 0.76691,-0.48174 1.48847,-0.7214 1.93718,-0.64343 3.78806,-2.42039 4.33617,-4.16299 0.27937,-0.88819 0.37663,-1.73333 0.26417,-2.29561 -0.13662,-0.6831 -0.0951,-0.86229 0.17849,-0.77108 0.48054,0.16019 0.79065,1.42139 0.59853,2.43425 -0.51029,2.69028 -3.20095,5.1791 -6.10936,5.65107 -0.63268,0.10267 -0.87618,0.0595 -0.75647,-0.13424 z m -5.56976,-0.44984 c -1.16034,-0.50462 -3.11643,-2.35557 -3.62747,-3.43249 -0.71019,-1.49662 -0.46274,-4.91045 0.35594,-4.91045 0.1266,0 0.16547,0.71361 0.0864,1.58581 -0.25518,2.81407 1.06655,4.92725 4.03043,6.44387 1.0694,0.54721 1.19616,0.67731 0.66146,0.6789 -0.36381,10e-4 -1.04184,-0.16346 -1.50675,-0.36564 z m 3.62393,-9.74346 c -0.36352,-0.18391 -0.8993,-0.71335 -1.19063,-1.17653 -0.64739,-1.0293 -0.95431,-1.05161 -2.44543,-0.17775 -0.64268,0.37663 -1.24845,0.60451 -1.34617,0.50639 -0.28212,-0.28328 0.95378,-1.14839 2.34804,-1.64359 0.78406,-0.27847 1.32898,-0.64702 1.40898,-0.95296 0.11609,-0.44393 0.0232,-0.47907 -0.84378,-0.31912 -0.53583,0.0988 -1.98627,0.76527 -3.22319,1.48091 -2.24898,1.30119 -2.99259,1.32874 -1.81429,0.0672 0.95211,-1.01937 3.81338,-2.20151 6.00209,-2.47978 1.97742,-0.2514 4.83049,-0.005 6.26631,0.54066 0.98187,0.37331 2.24589,1.29362 2.24589,1.63521 0,0.32584 -0.32518,0.246 -2.71198,-0.66581 l -1.78594,-0.68227 v 0.59473 c 0,0.47548 0.22546,0.65583 1.12448,0.89948 1.09784,0.29755 3.11447,1.72841 2.83724,2.01312 -0.0766,0.0787 -0.92158,-0.31073 -1.87768,-0.8654 l -1.73835,-1.00848 -0.32318,0.89375 c -0.18669,0.51627 -0.64524,1.06029 -1.08575,1.28808 -0.91869,0.47508 -1.00585,0.47754 -1.84666,0.0521 z m -1.19128,-5.1701 c -0.0624,-0.0624 0.0609,-0.36245 0.27406,-0.66676 0.53141,-0.75869 0.52112,-3.01413 -0.0143,-3.12811 -0.72839,-0.15508 0.65802,-1.79531 1.52211,-1.80077 1.00938,-0.006 2.25698,-1.234918 2.46481,-2.427168 0.22025,-1.26344 -0.51628,-2.07532 -1.88272,-2.07532 -1.11467,0 -1.81397,0.32397 -2.89302,1.34024 l -0.79375,0.74758 -1.38906,-1.32726 c -0.76399,-0.72999 -1.38907,-1.36276 -1.38907,-1.40616 0,-0.0434 0.3959,-0.14315 0.87976,-0.22167 0.48387,-0.0785 1.63342,-0.62988 2.55456,-1.22525 1.37703,-0.890011 1.90424,-1.082477 2.9652,-1.082477 3.32204,0 5.00735,2.147497 4.39839,5.604637 -0.28221,1.602118 -0.75335,2.250468 -3.2117,4.419688 -0.48133,0.42472 -0.50498,1.4682 -0.0636,2.80796 0.16223,0.49246 0.0535,0.53004 -1.56694,0.54174 -0.9577,0.007 -1.79233,-0.0385 -1.85474,-0.1009 z"
       style="fill:#000000;stroke-width:0.264583" />
  </g>
</svg>